<?xml version="1.0" encoding="utf-8"?>
<!-- Generator: Adobe Illustrator 13.0.0, SVG Export Plug-In . SVG Version: 6.00 Build 14948)  -->
<!DOCTYPE svg PUBLIC "-//W3C//DTD SVG 1.1//EN" "http://www.w3.org/Graphics/SVG/1.1/DTD/svg11.dtd">
<svg version="1.1" id="Layer_1" xmlns="http://www.w3.org/2000/svg" xmlns:xlink="http://www.w3.org/1999/xlink" x="0px" y="0px"
	 width="200px" height="100px" viewBox="0 0 200 100" enable-background="new 0 0 200 100" xml:space="preserve">
<g>
	<path fill="#FFFF00" d="M87.676,98.933H76.739H65.801H54.864H43.926H32.988H22.051H11.113V87.995H0.176V77.058V66.12V55.183V44.245
		V33.308V22.37V11.433V0.495h10.938h10.938h10.938h10.938h10.938h10.938h10.938h10.938v10.938h10.938V22.37v10.938v10.938v10.938
		V66.12v10.938v10.938v10.938H87.676z M76.739,87.995h10.938V77.058V66.12V55.183V44.245V33.308V22.37H76.739H65.801H54.864H43.926
		H32.988H22.051v10.938v10.938v10.938V66.12v10.938v10.938h10.938h10.938h10.938h10.938H76.739z M54.864,77.058H43.926V66.12V55.183
		V44.245V33.308h10.938h10.938v10.938v10.938V66.12v10.938H54.864z"/>
</g>
<g>
	<path fill="#FFFF00" d="M188.961,98.934h-10.938h-10.938h-10.938h-10.938h-10.938h-10.938h-10.938V87.996h-10.938V77.059V66.121
		V55.184V44.246V33.309V22.371V11.434V0.496h10.938h10.938h10.938h10.938h10.938h10.938h10.938h10.938v10.938h10.938v10.938v10.938
		v10.938v10.938v10.938v10.938v10.938v10.938H188.961z M178.023,87.996h10.938V77.059V66.121V55.184V44.246V33.309V22.371h-10.938
		h-10.938h-10.938h-10.938h-10.938h-10.938v10.938v10.938v10.938v10.938v10.938v10.938h10.938h10.938V77.059V66.121V55.184V44.246
		V33.309h10.938h10.938v10.938v10.938v10.938v10.938v10.938H178.023z"/>
</g>
<g>
	<rect x="-33.251" y="-14.352" fill="none" width="251.428" height="79.43"/>
</g>
</svg>
